<svg xmlns="http://www.w3.org/2000/svg" width="239" height="61" fill="none" viewBox="0 0 239 61"><g fill="#2B2A29" clip-path="url(#a)"><path d="M21.179 9H.617a.47.47 0 0 0-.47.472v5.174c0 3.24 2.634 5.88 5.865 5.88h14.932a1.904 1.904 0 0 0 0-3.809H6.012a2.08 2.08 0 0 1-2.076-2.081v-1.6c0-.138.108-.246.245-.246h16.988c3.231 0 5.855 2.631 5.855 5.871 0 3.21-2.624 5.822-5.855 5.822H4.788a5.3 5.3 0 0 1-3.975-1.806.47.47 0 0 0-.52-.128.47.47 0 0 0-.303.442v.54c0 2.65 2.154 4.81 4.798 4.81l16.381.01c5.327 0 9.654-4.34 9.654-9.68s-4.327-9.68-9.654-9.68zm0 21.649-16.381.01c-2.644 0-4.798 2.16-4.798 4.81v.54c0 .197.118.373.304.442s.391.02.519-.128a5.28 5.28 0 0 1 3.975-1.806h16.381c3.231 0 5.855 2.611 5.855 5.822 0 3.24-2.624 5.87-5.855 5.87H4.191a.243.243 0 0 1-.245-.245v-1.6a2.08 2.08 0 0 1 2.076-2.081h14.932a1.904 1.904 0 0 0 0-3.81H6.022c-3.231 0-5.865 2.641-5.865 5.881v5.174c0 .255.215.471.47.471h20.562c5.326 0 9.654-4.34 9.654-9.68s-4.328-9.68-9.654-9.68zM40.488 9H61.05a.47.47 0 0 1 .47.472v5.174c0 3.24-2.634 5.88-5.865 5.88H40.723a1.904 1.904 0 0 1 0-3.809h14.932a2.08 2.08 0 0 0 2.075-2.081v-1.6a.243.243 0 0 0-.244-.246H40.498c-3.232 0-5.856 2.631-5.856 5.871 0 3.21 2.624 5.822 5.855 5.822H56.88a5.3 5.3 0 0 0 3.975-1.806.47.47 0 0 1 .519-.128.47.47 0 0 1 .303.442v.54c0 2.65-2.154 4.81-4.797 4.81l-16.381.01c-5.327 0-9.655-4.34-9.655-9.68s4.328-9.68 9.655-9.68z"/><path d="m40.488 30.649 16.38.01c2.645 0 4.799 2.16 4.799 4.81v.54a.47.47 0 0 1-.304.442.47.47 0 0 1-.519-.128 5.28 5.28 0 0 0-3.975-1.806H40.488c-3.231 0-5.855 2.611-5.855 5.822 0 3.24 2.624 5.87 5.855 5.87h16.988a.243.243 0 0 0 .245-.245v-1.6a2.08 2.08 0 0 0-2.076-2.081H40.713a1.904 1.904 0 0 1 0-3.81h14.932c3.231 0 5.865 2.641 5.865 5.881v5.174a.477.477 0 0 1-.47.471H40.478c-5.327 0-9.654-4.34-9.654-9.68s4.327-9.68 9.654-9.68zm57.525 7.324c-.314.657-.803 1.227-1.46 1.698-.655.471-1.488.844-2.486 1.11-1.009.265-2.194.392-3.564.392H85.4V29.5h4.955c1.498 0 2.77.167 3.809.49 1.037.325 1.87.767 2.516 1.336a4.95 4.95 0 0 1 1.39 1.983 7 7 0 0 1 .431 2.474c0 .805-.156 1.542-.47 2.2zm-12.612-21h3.888c1.41 0 2.614.127 3.622.392s1.841.629 2.497 1.11a4.36 4.36 0 0 1 1.45 1.728c.303.677.46 1.423.46 2.248 0 .766-.128 1.463-.392 2.11a4.9 4.9 0 0 1-1.146 1.69 5.6 5.6 0 0 1-1.86 1.119c-.734.265-1.577.402-2.526.402H85.39v-10.79zm16.391 14.01a7 7 0 0 0-2.076-1.463c-.802-.383-1.703-.648-2.702-.805v-.099c.999-.47 1.821-.942 2.477-1.404s1.185-.942 1.577-1.462a4.7 4.7 0 0 0 .832-1.689 8.3 8.3 0 0 0 .235-2.052c0-1.03-.245-1.973-.744-2.818-.5-.844-1.195-1.58-2.086-2.189s-1.968-1.08-3.212-1.414c-1.253-.333-2.614-.5-4.102-.5H80.68v28.147h13.082c1.488 0 2.83-.196 4.044-.599 1.204-.393 2.242-.933 3.094-1.62a7.2 7.2 0 0 0 1.978-2.415c.47-.923.695-1.924.695-2.985 0-.952-.156-1.816-.46-2.591a6.1 6.1 0 0 0-1.332-2.052zm26.437 2.366a9.5 9.5 0 0 1-.607 3.396 8.1 8.1 0 0 1-1.733 2.779c-.754.795-1.665 1.414-2.742 1.875s-2.281.687-3.622.687c-1.332 0-2.527-.226-3.604-.687a8.5 8.5 0 0 1-2.761-1.875 8.3 8.3 0 0 1-1.762-2.779 9.3 9.3 0 0 1-.617-3.396V15.098h-4.72V33.26c0 1.463.265 2.837.784 4.124a9.5 9.5 0 0 0 2.291 3.387c.999.972 2.252 1.728 3.74 2.297 1.498.56 3.212.844 5.16.844 2.184 0 4.044-.284 5.591-.844s2.82-1.325 3.809-2.278a8.9 8.9 0 0 0 2.184-3.347c.47-1.277.695-2.632.695-4.075v-18.25h-2.086v18.25zm10.712-18.251h-4.719v28.137h18.829v-1.806h-14.11zm33.996 21.608h-.215l-10.928-21.609h-4.817v28.138h2.066V20.35h.333l11.642 22.885h.969l11.495-23.052h.167v23.052h4.739V15.098h-4.739zm19.387 6.529h19.515v-1.806h-14.795V28.783h9.879v-1.806h-9.879V16.904h14.795v-1.806h-19.515zm33.8-15.051q-1.352.413-2.937.413h-2.703V16.855h4.152c.871 0 1.665.147 2.399.432a5.5 5.5 0 0 1 1.87 1.188c.519.51.93 1.11 1.224 1.806.294.697.441 1.463.441 2.307 0 .923-.186 1.748-.559 2.494a5.7 5.7 0 0 1-1.537 1.905 7 7 0 0 1-2.33 1.197zm2.654 1.394a11.3 11.3 0 0 0 2.781-1.03c.842-.452 1.576-.982 2.183-1.59a6.7 6.7 0 0 0 1.41-2.053c.333-.756.499-1.58.499-2.444 0-1.06-.215-2.042-.636-2.946-.431-.903-1.067-1.678-1.919-2.326s-1.919-1.159-3.192-1.522-2.752-.55-4.446-.55h-9.693v28.147h4.719V30.03h3.3l9.743 13.234H239l-10.212-13.666z"/></g><defs><clipPath id="a"><path fill="#fff" d="M0 0h239v61H0z"/></clipPath></defs></svg>