<svg width="100%" height="100%" viewBox="0 0 138 29" fill="#fff" class="mt-[6px] h-[30px] lg:mt-0 lg:h-8" xmlns="http://www.w3.org/2000/svg"><path fill-rule="evenodd" clip-rule="evenodd" fill="#fff" d="M13.9017 0.192773L21.0664 22.0459H16.0308L14.4699 17.1383C14.3169 16.6326 14.498 16.2517 14.9413 16.1143L15.5501 15.902C15.7869 15.8264 16.0058 15.7031 16.1932 15.5398C16.3806 15.3764 16.5327 15.1765 16.64 14.9522C16.7473 14.7279 16.8076 14.4841 16.8172 14.2356C16.8268 13.9872 16.7855 13.7394 16.6958 13.5076C16.343 12.5023 15.447 12.1683 14.4855 12.4274L13.9517 12.5648C13.8497 12.6055 13.74 12.6227 13.6305 12.6152C13.521 12.6077 13.4146 12.5756 13.3192 12.5213C13.2238 12.467 13.1419 12.3919 13.0795 12.3016C13.0172 12.2113 12.9759 12.1081 12.9589 11.9997L10.5332 4.14194L8.07941 11.9934C8.06005 12.104 8.01652 12.2089 7.95192 12.3006C7.88731 12.3923 7.80324 12.4687 7.70571 12.5242C7.60818 12.5796 7.49959 12.6129 7.38772 12.6215C7.27585 12.6302 7.16345 12.614 7.05855 12.5741L6.61525 12.4492C5.57879 12.162 4.60476 12.6022 4.28321 13.6387C3.96166 14.6751 4.57354 15.6055 5.61001 15.9426L6.15946 16.1393C6.58403 16.2767 6.70578 16.6419 6.55593 17.132L4.97003 22.0396H0L7.30206 0.186523L13.9017 0.192773ZM12.4375 12.8301C12.7032 12.8204 12.968 12.8645 13.2161 12.9597C13.4643 13.0549 13.6906 13.1993 13.8816 13.3842C14.0726 13.569 14.2242 13.7905 14.3275 14.0354C14.4307 14.2804 14.4834 14.5436 14.4824 14.8094C14.4824 15.9395 13.5833 16.7324 12.4375 16.7324H8.71939C7.54557 16.7324 6.66208 15.9395 6.66208 14.8094C6.6601 14.5423 6.71256 14.2775 6.81625 14.0313C6.91995 13.7851 7.07271 13.5627 7.26522 13.3775C7.45773 13.1922 7.68596 13.0482 7.93597 12.9541C8.18598 12.86 8.45254 12.8178 8.71939 12.8301H12.4375ZM20.7139 17.0068H25.5621C25.609 18.4991 26.736 19.3545 28.3968 19.3545C29.8922 19.3545 30.8069 18.7301 30.8069 17.6749C30.8069 16.7602 30.1669 16.3513 28.7933 16.0765L25.9118 15.5115C22.4777 14.8403 21.0198 13.3012 21.0198 10.8786C21.0198 7.75673 23.611 5.52772 28.1377 5.52772C32.8018 5.52772 35.1057 7.91907 35.2587 10.8006H30.5103C30.4635 9.44566 29.5738 8.6371 28.0721 8.6371C26.686 8.6371 25.7557 9.3083 25.7557 10.2979C25.7557 11.0909 26.3176 11.5467 27.5695 11.7933L30.6009 12.3709C34.0349 13.0265 35.5396 14.5562 35.5396 17.0818C35.5396 20.7406 32.3866 22.492 28.3593 22.492C23.7109 22.492 20.8325 20.5252 20.7139 17.0068ZM29.7673 13.9099C29.7685 13.6295 29.6861 13.3551 29.5307 13.1218C29.3753 12.8884 29.1538 12.7066 28.8946 12.5996C28.6355 12.4926 28.3503 12.4653 28.0755 12.5211C27.8007 12.5768 27.5487 12.7132 27.3518 12.9128C27.1548 13.1125 27.0218 13.3662 26.9697 13.6417C26.9176 13.9173 26.9488 14.2021 27.0592 14.4598C27.1697 14.7175 27.3544 14.9365 27.5899 15.0888C27.8253 15.2411 28.1008 15.3197 28.3812 15.3148C28.7503 15.3091 29.1023 15.1586 29.3616 14.8959C29.6208 14.6331 29.7665 14.2791 29.7673 13.9099ZM41.3185 17.0068H36.4608C36.5701 20.5252 39.4453 22.492 44.0844 22.492C48.1241 22.492 51.2804 20.7406 51.2804 17.0818C51.2804 14.5562 49.7756 13.0265 46.3416 12.3709L43.3071 11.7933C42.0552 11.5467 41.4933 11.0909 41.4933 10.2979C41.4933 9.3083 42.4236 8.6371 43.8097 8.6371C45.3113 8.6371 46.2042 9.44566 46.2479 10.8006H51.015C50.862 7.91907 48.5612 5.52772 43.894 5.52772C39.3673 5.52772 36.7761 7.75673 36.7761 10.8786C36.7761 13.3012 38.2372 14.8403 41.6712 15.5115L44.5496 16.0765C45.9388 16.3513 46.5632 16.7602 46.5632 17.6749C46.5632 18.7301 45.6485 19.3545 44.1531 19.3545C42.4923 19.3545 41.3653 18.4991 41.3185 17.0068ZM45.2777 13.1218C45.4331 13.3551 45.5155 13.6295 45.5143 13.9099H45.5018C45.5011 14.2769 45.3571 14.6292 45.1005 14.8916C44.8439 15.154 44.495 15.3058 44.1281 15.3148C43.8478 15.3197 43.5723 15.2411 43.3368 15.0888C43.1014 14.9365 42.9167 14.7175 42.8062 14.4598C42.6957 14.2021 42.6646 13.9173 42.7167 13.6417C42.7688 13.3662 42.9018 13.1125 43.0987 12.9128C43.2957 12.7132 43.5476 12.5768 43.8224 12.5211C44.0972 12.4653 44.3824 12.4926 44.6416 12.5996C44.9008 12.7066 45.1222 12.8884 45.2777 13.1218ZM58.2539 12.143H62.9929C62.8399 9.79532 61.8034 8.77446 60.0677 8.77446C58.4505 8.77446 57.2767 9.81092 56.9271 11.5623C56.849 11.9432 56.6523 12.0961 56.2247 12.0961H55.9374C55.73 12.0828 55.5221 12.1122 55.3264 12.1824C55.1308 12.2526 54.9516 12.3622 54.8 12.5044C54.6484 12.6466 54.5276 12.8184 54.4449 13.0091C54.3623 13.1999 54.3197 13.4055 54.3197 13.6134C54.3197 13.8212 54.3623 14.0269 54.4449 14.2176C54.5276 14.4083 54.6484 14.5801 54.8 14.7223C54.9516 14.8645 55.1308 14.9741 55.3264 15.0443C55.5221 15.1145 55.73 15.1439 55.9374 15.1306H56.2715C56.3493 15.1206 56.4284 15.1281 56.503 15.1525C56.5776 15.177 56.6458 15.2178 56.7026 15.2719C56.7594 15.326 56.8035 15.3922 56.8315 15.4655C56.8595 15.5388 56.8708 15.6174 56.8646 15.6957C57.0332 17.9653 58.282 19.2015 60.1582 19.2015C61.7192 19.2015 62.765 18.3149 62.9929 16.7321H67.6445C67.2011 20.3129 64.3946 22.492 60.0677 22.492C55.2662 22.492 52.0039 19.7354 52.0039 14.0192C52.0039 8.60589 55.4379 5.52772 60.0677 5.52772C64.532 5.52772 67.7194 8.4373 67.7194 13.7882C67.7194 14.2627 67.7194 14.7248 67.7038 15.1462H58.2539C57.3173 15.1462 56.668 14.5374 56.668 13.6508C56.668 12.7642 57.3079 12.143 58.2539 12.143ZM92.7912 22.0521V11.1536C92.7912 7.78199 90.993 5.528 87.8087 5.528C85.4455 5.528 83.6317 6.60817 82.6701 8.43758C82.3912 7.56978 81.8372 6.81643 81.092 6.29147C80.3468 5.76651 79.451 5.49851 78.5399 5.528C75.9331 5.528 74.1818 6.82357 73.5262 9.68945C73.2952 10.7259 72.7488 11.3191 71.8466 11.3191C71.6332 11.3221 71.4214 11.2819 71.224 11.2007C71.0266 11.1195 70.8478 10.999 70.6983 10.8466C70.5489 10.6943 70.4319 10.5131 70.3546 10.3142C70.2772 10.1153 70.241 9.90276 70.2482 9.68945C70.2476 9.46982 70.2914 9.25235 70.377 9.05009C70.4626 8.84783 70.5882 8.66495 70.7462 8.51245C70.9043 8.35995 71.0915 8.24096 71.2967 8.16265C71.5019 8.08433 71.7208 8.0483 71.9403 8.05672H72.8238C72.9077 8.06439 72.9922 8.05351 73.0715 8.02485C73.1507 7.99618 73.2227 7.95044 73.2823 7.89086C73.3419 7.83127 73.3876 7.75931 73.4163 7.68007C73.4449 7.60083 73.4558 7.51626 73.4481 7.43234V5.96818H69.3179V22.0521H73.9351V12.8582C73.9351 10.4356 74.9435 9.06507 76.6356 9.06507C78.0061 9.06507 78.7366 9.94857 78.7366 11.472V22.0521H83.3726V12.5553C83.3726 10.3294 84.4402 9.06507 86.1011 9.06507C87.456 9.06507 88.174 9.94857 88.174 11.472V22.0521H92.7912ZM110.42 14.0193C110.42 19.2766 107.888 22.4921 103.911 22.4921C101.807 22.4921 100.165 21.5555 99.2596 19.7355V22.0519H94.7016V0.198803H99.1971V7.2636C99.1971 7.70691 98.9536 7.95042 98.5728 7.95042H97.6362C97.4218 7.9377 97.2069 7.96842 97.0047 8.04074C96.8024 8.11306 96.6168 8.22549 96.459 8.37128C96.3013 8.51708 96.1746 8.69323 96.0865 8.88919C95.9985 9.08515 95.951 9.29687 95.9467 9.51165C95.9425 9.72643 95.9818 9.93985 96.062 10.1391C96.1423 10.3384 96.262 10.5193 96.414 10.6712C96.5659 10.8231 96.7469 10.9427 96.9462 11.0229C97.1455 11.1031 97.359 11.1422 97.5738 11.1378C98.5103 11.1378 99.0223 10.4354 99.2658 9.50511C99.9838 6.89834 101.629 5.52784 104.161 5.52784C108.01 5.52784 110.42 8.71216 110.42 14.0193ZM105.663 14.0193C105.663 11.0442 104.595 9.04931 102.494 9.04931C100.393 9.04931 99.2908 11.0442 99.2908 14.0193C99.2908 16.9945 100.405 18.9706 102.506 18.9706C104.607 18.9706 105.663 17.007 105.663 14.0193ZM111.972 0.198803V22.0519H116.589V0.198803H111.972ZM129.156 5.96798H133.941L128.272 22.4483C126.914 26.3944 124.766 28.1333 121.366 28.1333C120.49 28.1481 119.616 28.0303 118.775 27.7836V23.925C119.395 24.1546 120.051 24.2689 120.711 24.2622C122.097 24.2622 122.968 23.6815 123.652 22.1268L117.586 5.96798H122.556L125.481 14.9933C125.56 15.1976 125.577 15.4204 125.531 15.6344C125.485 15.8484 125.378 16.0443 125.222 16.1983L124.797 16.6541C124.625 16.8201 124.488 17.0189 124.393 17.2387C124.299 17.4585 124.25 17.6949 124.248 17.9341C124.238 18.1726 124.276 18.4107 124.361 18.634C124.445 18.8573 124.574 19.0612 124.739 19.2335C124.904 19.4058 125.102 19.5429 125.322 19.6366C125.542 19.7303 125.778 19.7785 126.017 19.7785C126.255 19.7785 126.491 19.7303 126.711 19.6366C126.931 19.5429 127.129 19.4058 127.294 19.2335C127.459 19.0612 127.588 18.8573 127.672 18.634C127.757 18.4107 127.795 18.1726 127.785 17.9341C127.773 17.4527 127.576 16.9943 127.236 16.6541L126.792 16.1983C126.628 16.0504 126.51 15.8572 126.455 15.6428C126.399 15.4285 126.408 15.2026 126.48 14.9933L129.156 5.96798ZM134.817 4.2776C134.645 4.53522 134.553 4.83803 134.553 5.14778C134.552 5.35437 134.593 5.55907 134.671 5.75002C134.75 5.94097 134.866 6.11437 135.013 6.26017C135.159 6.40596 135.333 6.52126 135.524 6.59937C135.715 6.67748 135.92 6.71686 136.127 6.71522C136.437 6.714 136.739 6.62104 136.996 6.44806C137.253 6.27509 137.453 6.02986 137.571 5.74334C137.688 5.45682 137.718 5.14186 137.657 4.83821C137.596 4.53457 137.446 4.25585 137.227 4.03726C137.007 3.81866 136.728 3.66999 136.424 3.61001C136.12 3.55003 135.805 3.58143 135.519 3.70025C135.233 3.81907 134.989 4.01997 134.817 4.2776ZM137.079 4.50358C137.211 4.69283 137.285 4.91695 137.29 5.14778C137.294 5.30331 137.267 5.4581 137.211 5.60304C137.154 5.74799 137.069 5.88017 136.961 5.99181C136.852 6.10345 136.723 6.1923 136.58 6.25313C136.436 6.31396 136.282 6.34555 136.127 6.34605C135.896 6.34761 135.67 6.28092 135.477 6.15434C135.284 6.02776 135.132 5.84693 135.041 5.63459C134.951 5.42224 134.925 5.18784 134.967 4.96083C135.009 4.73382 135.118 4.52432 135.278 4.35866C135.439 4.19299 135.645 4.07854 135.871 4.02968C136.097 3.98082 136.332 3.99975 136.547 4.08406C136.762 4.16837 136.947 4.31432 137.079 4.50358ZM135.51 4.32487V5.95212L135.927 5.96037V5.42002H136.133C136.166 5.41646 136.199 5.42 136.231 5.4304C136.262 5.4408 136.291 5.45782 136.315 5.4803C136.339 5.50279 136.358 5.53022 136.371 5.56074C136.384 5.59125 136.39 5.62415 136.389 5.6572L136.418 5.95212H136.83L136.772 5.54995C136.773 5.4717 136.746 5.39578 136.695 5.33625C136.644 5.27672 136.573 5.23761 136.496 5.22615C136.591 5.20253 136.674 5.14603 136.731 5.06672C136.788 4.9874 136.815 4.89042 136.807 4.79304C136.807 4.49399 136.578 4.32487 136.224 4.32487H135.51ZM136.385 4.86729C136.385 5.0096 136.281 5.07353 136.143 5.07353L135.923 5.07766V4.67754H136.152C136.288 4.67754 136.385 4.72498 136.385 4.86729Z"></path></svg>