
<svg xmlns="http://www.w3.org/2000/svg" viewBox="0 0 256 256">
    <style>
        g {
        fill: #fff;
        }

        @media(prefers-color-scheme:dark) {
        g {
        fill: #fff;
        }
        }
    </style>
    <defs>
        <clipPath id="a">
            <path fill-rule="evenodd" d="M0 340.2h680V.2H0Z" />
        </clipPath>
    </defs>
    <g fill-rule="evenodd" clip-path="url(#a)" transform="matrix(2.53 0 0 2.53 -730.7 -201.3)">
        <path
                d="M311 165a54.4 54.4 0 0 0 21 5c1 2 3.9 3.5 7.4 3.5 3.5 0 6.5-1.5 7.5-3.6 4.7-.2 19.9-1.6 24.3-8l1-2 .2-1.6c-8.7 4.6-12.8-1.8-21.2 3.6-.8-1 5.8-4.1 2.4-14.4-6 7.4-12.4 4.7-14.2 14.3-1.7-9.6-8.2-6.9-14.1-14.3-3.5 10.3 3.2 13.5 2.3 14.4-8.4-5.4-12.5 1-21.1-3.6 0 1.8.8 3.3 2 4.6 1.3 1.2 1.7 1.6 2.6 2" />
        <path
                d="M308.3 165.7c-1.4-.5-2.8-1-4.4-2a33.9 33.9 0 0 1-9.3-8.5 32.7 32.7 0 0 1-5.7-14.8 27.4 27.4 0 0 1 3.2-14c1.3-2.5 3.2-4.9 5.4-6.9s4.8-3.6 6.7-4.6c2-1 3.3-1.4 4.5-1.7l3-.6c0-1.4.1-2.8.6-4.8a30.2 30.2 0 0 1 9.7-15 25.4 25.4 0 0 1 18.9-5.8c2.9.3 5.6.8 8 1.6a30.9 30.9 0 0 1 15.4 13.7c1 2.2 1.8 4.6 2.2 6.3.4 1.8.4 3 .4 4.2 1.3 0 2.6 0 4.3.5a21 21 0 0 1 5.9 3.1 40.4 40.4 0 0 1 8.8 9 28.4 28.4 0 0 1 4 10.8 24.8 24.8 0 0 1-5.4 18.7c-1.5 2-3 4-4.8 5.6a26.2 26.2 0 0 1-10.6 6.3l5.4-4.2a29.4 29.4 0 0 0 10.6-18.9 24.8 24.8 0 0 0-2-11.8 22.7 22.7 0 0 0-7-8.7 30.7 30.7 0 0 0-11.6-5.3 53 53 0 0 0-3.8-12.2 22 22 0 0 0-4-5 21 21 0 0 0-5.7-3.9 29.5 29.5 0 0 0-18.8-1.3 25.7 25.7 0 0 0-12.3 7.8 19 19 0 0 0-5.3 11.1c-.3 1.7-.3 2.7-.3 3.6-2.6.6-5.1 1.3-7.3 2.2-2.3.9-4.2 2-6 3.8a30 30 0 0 0-6.5 11 25 25 0 0 0 3 20.8c1 1.5 2 2.7 3.8 4.3 1.8 1.6 4.4 3.6 7 5.6" />
    </g>
</svg>